<svg xmlns="http://www.w3.org/2000/svg" viewBox="0 0 100 100" class="w-full h-full" data-id="6" width="1200" height="1200"><rect width="100" height="100" fill="#FFD700" data-id="7"/><g transform="translate(9 17) scale(1)" data-id="8"><svg xmlns="http://www.w3.org/2000/svg" width="100" height="100" viewBox="0 0 24 24" fill="none" stroke="#40E0D0" stroke-width="2" stroke-linecap="round" stroke-linejoin="round" class="lucide lucide-stethoscope" data-id="9"><path d="M4.8 2.3A.3.3 0 1 0 5 2H4a2 2 0 0 0-2 2v5a6 6 0 0 0 6 6v0a6 6 0 0 0 6-6V4a2 2 0 0 0-2-2h-1a.2.2 0 1 0 .3.3"/><path d="M8 15v1a6 6 0 0 0 6 6v0a6 6 0 0 0 6-6v-4"/><circle cx="20" cy="10" r="2"/></svg></g></svg>